<svg xmlns="http://www.w3.org/2000/svg" viewBox="0 0 375 375" version="1.0">
    <defs>
        <clipPath id="a">
            <path d="M60.805 218H121v14H60.805Zm0 0" />
        </clipPath>
        <clipPath id="b">
            <path d="M254 218h60.305v14H254Zm0 0" />
        </clipPath>
        <clipPath id="c">
            <path d="M60.805 230H121v81H60.805Zm0 0" />
        </clipPath>
        <clipPath id="d">
            <path d="M254 230h60.305v81H254Zm0 0" />
        </clipPath>
        <clipPath id="e">
            <path d="M60.805 306h253.5v8.305h-253.5Zm0 0" />
        </clipPath>
        <clipPath id="f">
            <path d="M60.805 215H113v9H60.805Zm0 0" />
        </clipPath>
        <clipPath id="g">
            <path d="M96 60.805h183V168H96Zm0 0" />
        </clipPath>
        <clipPath id="h">
            <path d="M195 60.805h44V89h-44Zm0 0" />
        </clipPath>
        <clipPath id="i">
            <path d="M262 215h52.305v9H262Zm0 0" />
        </clipPath>
    </defs>
    <path fill="#a5c6e3" d="M187.555 64.797h47.53v19.8h-47.53Zm0 0" />
    <path fill="#a5c6e3" d="M207.355 76.68h47.532v19.8h-47.532Zm0 0" />
    <g clip-path="url(#a)">
        <path fill="#a5c6e3" d="M60.805 218.938h59.414v12.218H60.805Zm0 0" />
    </g>
    <g clip-path="url(#b)">
        <path fill="#a5c6e3" d="M254.887 218.938h59.418v12.218h-59.418Zm0 0" />
    </g>
    <g clip-path="url(#c)">
        <path fill="#36a9e1" d="M60.805 230.477h59.414v79.898H60.805Zm0 0" />
    </g>
    <g clip-path="url(#d)">
        <path fill="#36a9e1" d="M254.887 230.477h59.418v79.898h-59.418Zm0 0" />
    </g>
    <path fill="#36a9e1" d="M116.258 175.703h142.597v11.883H116.258Zm0 0" />
    <path fill="#a5c6e3" d="M108.336 163.82h158.437v11.883H108.336Zm0 0" />
    <path fill="#36a9e1" d="M274.695 163.82h-174.28v-15.843l87.14-27.727 87.14 27.727Zm0 0" />
    <path fill="#1d71b8" d="M120.219 187.586h134.676v122.789H120.219Zm0 0" />
    <path fill="#a5c6e3"
        d="M140.086 203.43h7.797v91.105h-7.797Zm23.762 0h7.797v91.105h-7.797Zm23.769 0h7.797v91.105h-7.797Zm23.762 0h7.8v91.105h-7.8Zm23.769 0h7.797v91.105h-7.797Zm0 0" />
    <g clip-path="url(#e)">
        <path fill="#1d1d1b" d="M60.805 306.477h253.5v7.796h-253.5Zm0 0" />
    </g>
    <path fill="#1d1d1b"
        d="M258.79 302.453h-7.798V191.484H124.117v110.97h-7.797V183.686h142.47Zm0 0" />
    <path fill="#1d1d1b"
        d="M132.102 203.367h4.023v91.227h-4.023v7.797h15.843v-7.797h-4.023v-91.227h4.023v-7.797h-15.843Zm23.765 0h4.024v91.227h-4.024v7.797h15.844v-7.797h-4.024v-91.227h4.024v-7.797h-15.844Zm23.766 0h4.023v91.227h-4.023v7.797h15.844v-7.797h-4.024v-91.227h4.024v-7.797h-15.844Zm23.765 0h4.024v91.227h-4.024v7.797h15.844v-7.797h-4.023v-91.227h4.023v-7.797h-15.844Zm39.61 0v-7.797h-4.024v-.062h-7.797v.062h-4.023v7.797h4.024v91.227h-4.024v7.797h15.844v-7.797h-4.024v-91.227ZM108.336 171.8h158.437v7.802H108.336Zm0 0" />
    <g clip-path="url(#f)">
        <path fill="#1d1d1b" d="M60.805 215.371h51.492v7.8H60.805Zm0 0" />
    </g>
    <g clip-path="url(#g)">
        <path fill="#1d1d1b"
            d="M191.453 117.398V60.836h-7.797v56.562l-87.14 27.727v22.594h182.078v-22.594Zm79.344 42.524H104.312v-9.094l83.243-26.488 83.242 26.488Zm0 0" />
    </g>
    <g clip-path="url(#h)">
        <path fill="#1d1d1b" d="M238.984 88.5h-43.507v-7.797h35.71V68.695h-35.71v-7.797h43.507Zm0 0" />
    </g>
    <path fill="#1d1d1b" d="M258.79 100.383h-43.51v-7.797h35.711V80.578h-7.984v-7.797h15.781Zm0 0" />
    <path fill="#fff" d="M183.656 140.055h7.797v7.922h-7.797Zm0 0" />
    <path fill="#1d1d1b"
        d="m108.332 235.05-43.57-.14.023-7.797 43.57.14Zm0 39.75-43.57-.14.023-7.797 43.57.14Zm0 0" />
    <path fill="#fff"
        d="M72.75 243.04h7.797v15.843H72.75Zm19.805 0h7.797v15.843h-7.797ZM72.75 282.648h7.797v15.844H72.75Zm19.805 0h7.797v15.844h-7.797Zm0 0" />
    <g clip-path="url(#i)">
        <path fill="#1d1d1b" d="M262.813 215.371h51.492v7.8h-51.493Zm0 0" />
    </g>
    <path fill="#1d1d1b"
        d="m310.34 235.043-43.574-.14.027-7.798 43.57.137Zm0 39.75-43.57-.14.023-7.798 43.57.137Zm0 0" />
    <path fill="#fff"
        d="M274.758 243.04h7.797v15.843h-7.797Zm19.801 0h7.8v15.843h-7.8Zm-19.801 39.608h7.797v15.844h-7.797Zm19.801 0h7.8v15.844h-7.8Zm0 0" />
</svg>