<?xml version="1.0" encoding="utf-8"?><svg version="1.1" id="Layer_1" xmlns="http://www.w3.org/2000/svg" xmlns:xlink="http://www.w3.org/1999/xlink" x="0px" y="0px" viewBox="0 0 122.88 70.51" style="enable-background:new 0 0 122.88 70.51" xml:space="preserve"><style type="text/css">.st0{fill-rule:evenodd;clip-rule:evenodd;}</style><g><path class="st0" d="M2.54,65.44h12.59c-0.93-0.24-1.63-1.1-1.63-2.1V2.17C13.5,0.98,14.48,0,15.67,0h90.97 c1.19,0,2.17,0.98,2.17,2.17v61.16c0,1.01-0.69,1.86-1.63,2.1h13.16c1.4,0,2.54,1.14,2.54,2.54v0c0,1.4-1.14,2.54-2.54,2.54H2.54 c-1.4,0-2.54-1.14-2.54-2.54v0C0,66.58,1.14,65.44,2.54,65.44L2.54,65.44z M46.1,50.49c0.36,0.42,0.31,1.05-0.11,1.41 c-0.42,0.36-1.05,0.31-1.41-0.11c-4.32-5.05-6.55-10.77-6.5-16.55c0.05-5.65,2.26-11.33,6.79-16.51c0.36-0.41,0.99-0.45,1.41-0.1 c0.41,0.36,0.45,0.98,0.1,1.41c-4.2,4.8-6.25,10.04-6.29,15.21C40.04,40.55,42.09,45.81,46.1,50.49L46.1,50.49z M51.32,45.63 c0.37,0.41,0.33,1.04-0.08,1.41c-0.41,0.37-1.04,0.33-1.41-0.08c-3.32-3.76-5.03-7.74-4.97-11.78c0.07-3.93,1.81-7.87,5.35-11.63 c0.38-0.4,1.01-0.42,1.41-0.04c0.4,0.38,0.42,1.01,0.04,1.41c-3.19,3.39-4.76,6.87-4.82,10.29c-0.05,3.53,1.48,7.06,4.46,10.44 L51.32,45.63L51.32,45.63z M55.95,41c0.34,0.42,0.29,1.05-0.15,1.4c-0.42,0.34-1.05,0.29-1.4-0.15c-1.79-2.2-2.72-4.6-2.74-7.03 c-0.01-2.37,0.88-4.75,2.7-6.98c0.34-0.42,0.97-0.49,1.4-0.15c0.42,0.34,0.49,0.97,0.15,1.4c-1.52,1.86-2.26,3.82-2.26,5.72 c0,1.96,0.79,3.93,2.28,5.77L55.95,41L55.95,41z M78.3,51.78c-0.36,0.42-0.99,0.47-1.41,0.11c-0.42-0.36-0.47-0.98-0.11-1.41 c4.01-4.68,6.07-9.95,6.02-15.24c-0.04-5.17-2.09-10.41-6.29-15.21c-0.36-0.41-0.31-1.04,0.1-1.41c0.41-0.36,1.04-0.31,1.41,0.1 c4.53,5.19,6.73,10.86,6.79,16.51C84.86,41.02,82.63,46.74,78.3,51.78L78.3,51.78z M73.06,46.94c-0.37,0.41-1,0.45-1.41,0.08 s-0.45-1-0.08-1.41c3-3.38,4.51-6.91,4.46-10.44c-0.05-3.43-1.63-6.91-4.82-10.29c-0.38-0.4-0.36-1.03,0.04-1.41 c0.4-0.38,1.03-0.36,1.41,0.04c3.54,3.76,5.28,7.69,5.35,11.63c0.07,4.04-1.63,8.02-4.97,11.78L73.06,46.94L73.06,46.94z M68.49,42.25c-0.34,0.42-0.97,0.49-1.4,0.15c-0.42-0.34-0.49-0.97-0.15-1.4c1.5-1.85,2.28-3.82,2.28-5.77 c0-1.92-0.73-3.86-2.26-5.72c-0.34-0.42-0.29-1.05,0.15-1.4c0.42-0.34,1.05-0.29,1.4,0.15c1.82,2.23,2.71,4.61,2.7,6.98 c-0.01,2.44-0.94,4.82-2.74,7.03L68.49,42.25L68.49,42.25z M61.42,38.94c-0.32,0-0.65-0.03-0.97-0.08 c-0.51-0.14-0.99-0.39-1.39-0.72c-0.09-0.08-0.18-0.16-0.27-0.24c-0.68-0.68-1.09-1.61-1.09-2.65c0-1.04,0.42-1.97,1.09-2.65 c0.68-0.68,1.61-1.09,2.65-1.09s1.97,0.42,2.65,1.09c0.68,0.68,1.09,1.61,1.09,2.65c0,0.58-0.13,1.12-0.36,1.6 C64.18,38.24,62.95,38.94,61.42,38.94L61.42,38.94z M17.21,3.4h88.19v59.32H17.21V3.4L17.21,3.4z M57.87,66.39h7.14 c0.67,0,1.22,0.55,1.22,1.22l0,0c0,0.67-0.55,1.22-1.22,1.22h-7.14c-0.67,0-1.22-0.55-1.22-1.22l0,0 C56.65,66.93,57.2,66.39,57.87,66.39L57.87,66.39z"/></g></svg>