<svg xmlns="http://www.w3.org/2000/svg" viewBox="0 0 375 375" version="1.0">
    <defs>
        <clipPath id="a">
            <path d="M66.547 190H124v116H66.547Zm0 0" />
        </clipPath>
        <clipPath id="b">
            <path d="M66.547 190H124v11H66.547Zm0 0" />
        </clipPath>
        <clipPath id="c">
            <path d="M252 190h56.797v11H252Zm0 0" />
        </clipPath>
        <clipPath id="d">
            <path d="M252 190h56.797v116H252Zm0 0" />
        </clipPath>
        <clipPath id="e">
            <path d="M252 156h56.797v45H252Zm0 0" />
        </clipPath>
        <clipPath id="f">
            <path d="M66.547 156H124v45H66.547Zm0 0" />
        </clipPath>
    </defs>
    <path fill="#f2d59f" d="M303.738 195.906v105.032h-46.422V195.902h46.414Zm0 0" />
    <path fill="#8ecac1" d="m277.54 161.082 26.19 34.82h-46.414v-34.82Zm0 0" />
    <path fill="#f2d59f"
        d="M257.316 195.902v105.036h-46.43v-50.81h-46.425v50.81h-46.43V161.082l69.64-34.816 69.645 34.816ZM199.102 170.5c0-6.309-5.118-11.426-11.43-11.426-6.309 0-11.426 5.117-11.426 11.426 0 6.313 5.117 11.43 11.426 11.43 6.312 0 11.43-5.118 11.43-11.43m0 0" />
    <path fill="#ff7124"
        d="m231.559 74.406-15.723 13.32 15.723 13.32h-43.887v-26.64Zm-43.887 175.723h23.215v50.809h-23.215Zm0 0" />
    <path fill="#e6b263"
        d="M199.102 170.5q0 1.13-.223 2.23-.217 1.109-.649 2.145c-.285.691-.64 1.352-1.054 1.977q-.626.932-1.422 1.73a11.3 11.3 0 0 1-3.707 2.477q-1.043.432-2.145.652a11.5 11.5 0 0 1-4.457 0 11.3 11.3 0 0 1-2.144-.652 11.4 11.4 0 0 1-3.707-2.477 11.3 11.3 0 0 1-2.477-3.707 11.3 11.3 0 0 1-.87-4.375q0-1.125.218-2.227a11.3 11.3 0 0 1 .652-2.144 11.3 11.3 0 0 1 2.477-3.707 11.4 11.4 0 0 1 8.078-3.348c.75 0 1.496.074 2.23.219a11.5 11.5 0 0 1 4.121 1.707q.934.625 1.73 1.422.797.798 1.423 1.73c.414.625.77 1.286 1.054 1.977q.433 1.037.649 2.144.222 1.102.223 2.227m0 0" />
    <path fill="#ff7124" d="M164.46 250.129h23.212v50.809H164.46Zm0 0" />
    <path fill="#f2d59f" d="M118.031 195.902v105.036H71.61V195.906l.004-.004Zm0 0" />
    <path fill="#8ecac1" d="M118.031 161.082v34.82H71.613l26.196-34.82Zm0 0" />
    <path fill="#5e2a41"
        d="M257.316 306h-46.43a5.06 5.06 0 0 1 0-10.121h46.43a5.06 5.06 0 0 1 0 10.121m-92.856 0h-46.429a5.06 5.06 0 0 1 0-10.121h46.43a5.06 5.06 0 0 1 0 10.121m0 0" />
    <g clip-path="url(#a)">
        <path fill="#5e2a41"
            d="M118.031 306H71.61a5.06 5.06 0 0 1-5.062-5.062V195.906a5.06 5.06 0 0 1 10.121 0v99.973h41.363a5.063 5.063 0 0 1 5.063 5.058A5.064 5.064 0 0 1 118.03 306m0 0" />
    </g>
    <g clip-path="url(#b)">
        <path fill="#5e2a41"
            d="M118.031 200.96H71.613a5.06 5.06 0 0 1 0-10.121h46.418a5.064 5.064 0 0 1 5.063 5.063 5.063 5.063 0 0 1-5.063 5.059m0 0" />
    </g>
    <g clip-path="url(#c)">
        <path fill="#5e2a41"
            d="M303.73 200.96h-46.414a5.06 5.06 0 1 1 0-10.12h46.414a5.061 5.061 0 1 1 0 10.12m0 0" />
    </g>
    <g clip-path="url(#d)">
        <path fill="#5e2a41"
            d="M303.738 306h-46.422a5.061 5.061 0 1 1 0-10.121h41.36v-99.973a5.06 5.06 0 0 1 10.12 0v105.032a5.06 5.06 0 0 1-5.058 5.062m0 0" />
    </g>
    <path fill="#5e2a41"
        d="M210.887 305.492H164.46a4.555 4.555 0 0 1-4.555-4.555V250.13a4.555 4.555 0 0 1 4.555-4.555h46.426a4.555 4.555 0 0 1 4.554 4.555v50.809a4.555 4.555 0 0 1-4.554 4.554m-41.871-9.11h37.316v-41.698h-37.316Zm-74.191-14.969a5.06 5.06 0 0 1-5.062-5.062v-11.118a5.06 5.06 0 0 1 10.12 0v11.118a5.06 5.06 0 0 1-5.058 5.062m185.699 0a5.064 5.064 0 0 1-5.062-5.062v-11.118a5.063 5.063 0 0 1 10.125 0v11.118a5.064 5.064 0 0 1-5.063 5.062M94.824 241.191a5.06 5.06 0 0 1-5.062-5.062v-11.117a5.061 5.061 0 1 1 10.12 0v11.117a5.06 5.06 0 0 1-5.058 5.062m185.699 0a5.064 5.064 0 0 1-5.062-5.062v-11.117a5.064 5.064 0 0 1 5.062-5.063 5.064 5.064 0 0 1 5.063 5.063v11.117a5.064 5.064 0 0 1-5.063 5.062M141.246 266.3a5.06 5.06 0 0 1-5.062-5.058V250.13a5.061 5.061 0 1 1 10.12 0v11.113a5.06 5.06 0 0 1-5.058 5.059m92.856-.002a5.06 5.06 0 0 1-5.063-5.058V250.13a5.061 5.061 0 1 1 10.121 0v11.113a5.06 5.06 0 0 1-5.058 5.059m-92.856-40.224a5.06 5.06 0 0 1-5.062-5.058v-11.114a5.061 5.061 0 1 1 10.12 0v11.114a5.06 5.06 0 0 1-5.058 5.058m92.856 0a5.06 5.06 0 0 1-5.063-5.058v-11.114a5.061 5.061 0 1 1 10.121 0v11.114a5.06 5.06 0 0 1-5.058 5.058m-46.43 0a5.06 5.06 0 0 1-5.059-5.058v-11.114a5.06 5.06 0 1 1 10.121 0v11.114a5.06 5.06 0 0 1-5.062 5.058m0 0" />
    <g clip-path="url(#e)">
        <path fill="#5e2a41"
            d="M303.734 200.965a5.03 5.03 0 0 1-3.66-1.567 5 5 0 0 1-.387-.453l-24.675-32.8h-17.696a5.061 5.061 0 1 1 0-10.122h20.223c1.59 0 3.086.747 4.043 2.02l26.156 34.766a5.066 5.066 0 0 1-.511 6.761 5.05 5.05 0 0 1-3.493 1.395m0 0" />
    </g>
    <g clip-path="url(#f)">
        <path fill="#5e2a41"
            d="M71.61 200.965a5.059 5.059 0 0 1-3.977-8.187l26.133-34.735a5.05 5.05 0 0 1 4.043-2.02h20.222a5.064 5.064 0 0 1 5.063 5.063 5.063 5.063 0 0 1-5.063 5.059h-17.699l-24.676 32.8a5.05 5.05 0 0 1-4.047 2.02m0 0" />
    </g>
    <path fill="#5e2a41"
        d="M187.672 305.492a4.555 4.555 0 0 1-4.555-4.555V250.13a4.555 4.555 0 1 1 9.11 0v50.809a4.555 4.555 0 0 1-4.555 4.554m0 0" />
    <path fill="#5e2a41"
        d="M257.316 306a5.06 5.06 0 0 1-5.062-5.062V164.21l-64.582-32.29-64.578 32.29v136.727a5.06 5.06 0 1 1-10.121 0V161.082a5.06 5.06 0 0 1 2.797-4.523l69.64-34.82a5.07 5.07 0 0 1 4.528 0l69.64 34.82a5.06 5.06 0 0 1 2.797 4.523v139.856a5.06 5.06 0 0 1-5.059 5.062m0 0" />
    <path fill="#5e2a41"
        d="M187.672 131.328a5.063 5.063 0 0 1-5.059-5.062v-25.22a5.06 5.06 0 0 1 10.121 0v25.22a5.064 5.064 0 0 1-5.062 5.062m0 0" />
    <path fill="#5e2a41"
        d="M231.559 106.11h-43.887a5.06 5.06 0 0 1-5.059-5.063v-26.64a5.06 5.06 0 0 1 5.059-5.06h43.887a5.061 5.061 0 0 1 3.273 8.923l-11.168 9.457 11.168 9.46a5.06 5.06 0 0 1 1.48 5.602 5.065 5.065 0 0 1-4.753 3.32m-38.825-10.122h25.024l-5.192-4.398a5.06 5.06 0 0 1-1.789-3.863c0-1.489.653-2.899 1.79-3.86l5.19-4.398h-25.023Zm-5.062 90.497c-8.813 0-15.98-7.172-15.98-15.984 0-8.809 7.167-15.98 15.98-15.98 8.812 0 15.984 7.171 15.984 15.98 0 8.813-7.172 15.984-15.984 15.984m0-22.855a6.88 6.88 0 0 0-6.871 6.871c0 3.793 3.082 6.875 6.87 6.875a6.883 6.883 0 0 0 6.876-6.875c0-3.79-3.086-6.871-6.875-6.871m0 0" />
</svg>