<svg xmlns="http://www.w3.org/2000/svg" viewBox="0 0 500 500" width="500" height="500">
    <circle style="fill:currentColor" cx="250" cy="250" r="240.699" />
    <path fill="#fff"
        d="M340.818 280.093c-15.241 0-29.586-6.455-42.496-16.944l3.138-14.883.09-.538c2.869-15.778 11.744-42.316 39.268-42.316 20.62 0 37.385 16.765 37.385 37.386 0 20.62-16.765 37.295-37.385 37.295m0-112.514c-35.144 0-62.309 22.772-73.426 60.336-16.854-25.371-29.675-55.764-37.116-81.404h-37.833v98.349c0 19.454-15.779 35.233-35.234 35.233-19.454 0-35.233-15.779-35.233-35.233v-98.439H84.232v98.349c0 40.254 32.723 73.336 72.977 73.336s72.977-33.082 72.977-73.336v-16.496c7.352 15.33 16.317 30.84 27.255 44.468L234.31 381.58h38.641l16.765-78.894c14.703 9.413 31.558 15.33 50.923 15.33 41.419 0 75.128-33.889 75.128-75.398.09-41.33-33.53-75.039-74.949-75.039" />
</svg>