<svg viewBox="0 0 32 32" xmlns="http://www.w3.org/2000/svg">
    <defs>
        <clipPath id="a">
            <path d="M0 0h32v32H0z" />
        </clipPath>
    </defs>
    <g data-name="Group 1662" clip-path="url(#a)">
        <g data-name="Group 1661">
            <g data-name="Group 1660">
                <path data-name="Path 3709"
                    d="M31.642.358a1 1 0 0 0-1.107-.21L.666 13.16a1 1 0 0 0-.039 1.815l8.389 4.071 1.752 6.337c0 .01.013.015.017.025a.5.5 0 0 0 .15.23l.009.005q.008.002.018.01a.5.5 0 0 0 .288.1h.018a.5.5 0 0 0 .18-.044q.02-.01.04-.023a.5.5 0 0 0 .126-.1c.007-.008.017-.01.024-.019l1.594-1.958 3.792 7.766a1 1 0 0 0 .9.561h.021a1 1 0 0 0 .9-.6L31.857 1.467a1 1 0 0 0-.215-1.109M26 4.306 9.645 17.153l-6.194-3.024Zm-1.324 2.312L12.039 19.255a.5.5 0 0 0-.137.254l-.726 3.591-1.335-4.83ZM12.859 19.849l-.007.011Zm-.716 3.513.284-1.4.322.659Zm5.729 5.188-4.5-9.214L28.457 4.251Z"
                    fill="#344952" />
            </g>
        </g>
    </g>
</svg>